<?xml version="1.0"?>
<svg xmlns="http://www.w3.org/2000/svg" height="512px" viewBox="-13 0 488 488" width="512px" class=""><g><path d="m214.78125 200h-96v96h64v-24c0-11.046875 8.953125-20 20-20h12zm0 0" fill="#40c4ff" data-original="#40C4FF" class="" data-old_color="#40c4ff" style="fill:#FF4040"/><g fill="#263238"><path d="m458.78125 64h-32c-2.207031 0-4-1.792969-4-4s1.792969-4 4-4h32c2.207031 0 4 1.792969 4 4s-1.792969 4-4 4zm0 0" data-original="#263238" class=""/><path d="m442.78125 80c-2.207031 0-4-1.792969-4-4v-32c0-2.207031 1.792969-4 4-4s4 1.792969 4 4v32c0 2.207031-1.792969 4-4 4zm0 0" data-original="#263238" class=""/><path d="m402.78125 116h-32c-2.207031 0-4-1.792969-4-4s1.792969-4 4-4h32c2.207031 0 4 1.792969 4 4s-1.792969 4-4 4zm0 0" data-original="#263238" class=""/><path d="m386.78125 132c-2.207031 0-4-1.792969-4-4v-32c0-2.207031 1.792969-4 4-4s4 1.792969 4 4v32c0 2.207031-1.792969 4-4 4zm0 0" data-original="#263238" class=""/><path d="m46.78125 476h-8c-2.207031 0-4-1.792969-4-4s1.792969-4 4-4h8c2.207031 0 4 1.792969 4 4s-1.792969 4-4 4zm0 0" data-original="#263238" class=""/><path d="m170.78125 476h-108c-2.207031 0-4-1.792969-4-4s1.792969-4 4-4h108c2.207031 0 4 1.792969 4 4s-1.792969 4-4 4zm0 0" data-original="#263238" class=""/></g><path d="m210.78125 4h-88c-17.648438 0-32 14.351562-32 32v52h24v-52c0-4.40625 3.589844-8 8-8h88c4.414062 0 8 3.59375 8 8v52h24v-52c0-17.640625-14.351562-32-32-32zm0 0" fill="#ffd740" data-original="#FFD740" class="active-path" data-old_color="#ffd740" style="fill:#92908A"/><path d="m242.78125 92c-2.207031 0-4-1.792969-4-4v-52c0-15.441406-12.5625-28-28-28h-88c-15.441406 0-28 12.558594-28 28v52c0 2.207031-1.792969 4-4 4s-4-1.792969-4-4v-52c0-19.847656 16.152344-36 36-36h88c19.847656 0 36 16.152344 36 36v52c0 2.207031-1.792969 4-4 4zm0 0" fill="#263238" data-original="#263238" class=""/><path d="m218.78125 92c-2.207031 0-4-1.792969-4-4v-52c0-2.207031-1.792969-4-4-4h-88c-2.207031 0-4 1.792969-4 4v52c0 2.207031-1.792969 4-4 4s-4-1.792969-4-4v-52c0-6.617188 5.382812-12 12-12h88c6.617188 0 12 5.382812 12 12v52c0 2.207031-1.792969 4-4 4zm0 0" fill="#263238" data-original="#263238" class=""/><path d="m306.78125 268h40v216h-40zm0 0" fill="#ff5252" data-original="#FF5252" class="" style="fill:#FF5252"/><path d="m346.78125 488h-40c-2.207031 0-4-1.792969-4-4v-216c0-2.207031 1.792969-4 4-4h40c2.207031 0 4 1.792969 4 4v216c0 2.207031-1.792969 4-4 4zm-36-8h32v-208h-32zm0 0" fill="#263238" data-original="#263238" class=""/><path d="m290.78125 488h-76c-6.617188 0-12-5.382812-12-12v-144c0-2.207031 1.792969-4 4-4s4 1.792969 4 4v144c0 2.207031 1.792969 4 4 4h76c2.207031 0 4 1.792969 4 4s-1.792969 4-4 4zm0 0" fill="#263238" data-original="#263238" class=""/><path d="m438.78125 488h-76c-2.207031 0-4-1.792969-4-4s1.792969-4 4-4h76c2.207031 0 4-1.792969 4-4v-144c0-2.207031 1.792969-4 4-4s4 1.792969 4 4v144c0 6.617188-5.382812 12-12 12zm0 0" fill="#263238" data-original="#263238" class=""/><path d="m290.78125 336h-84c-6.617188 0-12-5.382812-12-12v-48c0-6.617188 5.382812-12 12-12h84c2.207031 0 4 1.792969 4 4s-1.792969 4-4 4h-84c-2.207031 0-4 1.792969-4 4v48c0 2.207031 1.792969 4 4 4h84c2.207031 0 4 1.792969 4 4s-1.792969 4-4 4zm0 0" fill="#263238" data-original="#263238" class=""/><path d="m446.78125 336h-84c-2.207031 0-4-1.792969-4-4s1.792969-4 4-4h84c2.207031 0 4-1.792969 4-4v-48c0-2.207031-1.792969-4-4-4h-84c-2.207031 0-4-1.792969-4-4s1.792969-4 4-4h84c6.617188 0 12 5.382812 12 12v48c0 6.617188-5.382812 12-12 12zm0 0" fill="#263238" data-original="#263238" class=""/><path d="m326.78125 252-52-64-40 36 52 28" fill="#ff5252" data-original="#FF5252" class="" style="fill:#FF5252"/><path d="m286.78125 256c-.640625 0-1.289062-.152344-1.890625-.480469l-52-28c-1.148437-.617187-1.917969-1.75-2.078125-3.046875-.152344-1.296875.328125-2.578125 1.296875-3.449218l40-36c.816406-.734376 1.839844-1.128907 2.992187-1.015626 1.085938.089844 2.101563.617188 2.789063 1.464844l52 64c1.394531 1.710938 1.136719 4.230469-.582031 5.632813-1.710938 1.398437-4.230469 1.132812-5.632813-.585938l-49.34375-60.734375-32.648437 29.382813 47 25.304687c1.945312 1.046875 2.671875 3.480469 1.632812 5.414063-.734375 1.351562-2.113281 2.113281-3.535156 2.113281zm0 0" fill="#263238" data-original="#263238" class=""/><path d="m326.78125 252 52-64 36 36-48 28" fill="#ff5252" data-original="#FF5252" class="" style="fill:#FF5252"/><path d="m366.78125 256c-1.375 0-2.710938-.710938-3.464844-1.984375-1.113281-1.910156-.464844-4.359375 1.441406-5.472656l43.519532-25.382813-29.191406-29.191406-49.203126 60.558594c-1.390624 1.710937-3.902343 1.984375-5.628906.585937-1.714844-1.394531-1.976562-3.914062-.585937-5.632812l52-64c.710937-.878907 1.769531-1.417969 2.898437-1.472657 1.109375-.023437 2.230469.367188 3.03125 1.167969l36 36c.878906.871094 1.292969 2.113281 1.144532 3.335938-.160157 1.230469-.882813 2.320312-1.953126 2.945312l-48 28c-.625.367188-1.320312.542969-2.007812.542969zm0 0" fill="#263238" data-original="#263238" class=""/><path d="m190.78125 444h-166.777344c-6.679687 0-12.878906-2.679688-17.472656-7.542969-4.582031-4.855469-6.886719-11.210937-6.4882812-17.882812l17.6171872-296c.761719-12.652344 11.289063-22.574219 23.960938-22.574219h250.3125c12.679687 0 23.199218 9.921875 23.957031 22.574219l5.496094 92.265625c.136719 2.207031-1.550781 4.105468-3.75 4.230468-2.222657.121094-4.105469-1.542968-4.230469-3.75l-5.496094-92.265624c-.503906-8.445313-7.523437-15.054688-15.96875-15.054688h-250.320312c-8.457032 0-15.472656 6.609375-15.976563 15.046875l-17.617187 296c-.261719 4.449219 1.273437 8.679687 4.328125 11.921875 3.058593 3.238281 7.199219 5.03125 11.648437 5.03125h166.777344c2.207031 0 4 1.792969 4 4s-1.792969 4-4 4zm0 0" fill="#263238" data-original="#263238" class=""/><path d="m182.78125 300h-56c-6.617188 0-12-5.382812-12-12v-80c0-6.617188 5.382812-12 12-12h80c6.617188 0 12 5.382812 12 12v44c0 2.207031-1.792969 4-4 4s-4-1.792969-4-4v-44c0-2.207031-1.792969-4-4-4h-80c-2.207031 0-4 1.792969-4 4v80c0 2.207031 1.792969 4 4 4h56c2.207031 0 4 1.792969 4 4s-1.792969 4-4 4zm0 0" fill="#263238" data-original="#263238" class=""/><path d="m190.78125 364h-72c-2.207031 0-4-1.792969-4-4v-24c0-2.207031 1.792969-4 4-4h64c2.207031 0 4 1.792969 4 4s-1.792969 4-4 4h-60v16h68c2.207031 0 4 1.792969 4 4s-1.792969 4-4 4zm0 0" fill="#263238" data-original="#263238" class=""/></g> </svg>
