<?xml version="1.0"?>
<svg xmlns="http://www.w3.org/2000/svg" height="512px" viewBox="-20 0 512 512" width="512px"><g><path d="m471.515625 128.046875c0-15.652344-7.855469-29.566406-20.140625-37.710937 12.285156-8.144532 20.140625-22.058594 20.140625-37.714844 0-29.015625-23.605469-52.621094-52.621094-52.621094h-47.660156c-4.140625 0-7.5 3.355469-7.5 7.496094 0 4.144531 3.359375 7.5 7.5 7.5h47.660156c20.746094 0 37.625 16.878906 37.625 37.625 0 14.921875-10.671875 27.480468-25.375 29.863281-.480469.078125-.941406.195313-1.386719.351563h-307.28125c-8.886718 0-16.117187-7.230469-16.117187-16.121094 0-4.140625-3.359375-7.496094-7.5-7.496094s-7.496094 3.355469-7.496094 7.496094c0 17.15625 13.957031 31.117187 31.113281 31.117187h307.28125c.445313.15625.90625.273438 1.386719.351563 14.703125 2.382812 25.375 14.941406 25.375 29.863281 0 20.695313-16.792969 37.539063-37.46875 37.625-.054687 0-.105469-.007813-.15625-.007813h-328.601562c-.070313 0-.140625.003907-.207031.003907-41.425782-.113281-75.089844-33.84375-75.089844-75.378907 0-41.515624 33.777344-75.292968 75.296875-75.292968h246.195312c4.144531 0 7.5-3.355469 7.5-7.5 0-4.140625-3.355469-7.496094-7.5-7.496094h-246.195312c-49.789063 0-90.292969 40.503906-90.292969 90.378906 0 36.988282 22.363281 68.851563 54.28125 82.789063-31.917969 13.941406-54.28125 45.820312-54.28125 82.875 0 36.992187 22.363281 68.855469 54.28125 82.792969-31.917969 13.9375-54.28125 45.816406-54.28125 82.875 0 21.867187 7.921875 42.96875 22.300781 59.410156 2.726563 3.117187 7.460938 3.4375 10.578125.710937 3.117188-2.726562 3.4375-7.464843.710938-10.582031-11.992188-13.710938-18.59375-31.304688-18.59375-49.628906 0-41.449219 33.667968-75.179688 75.09375-75.289063.066406 0 .132812.003907.203125.003907h328.601562c.050781 0 .101563-.007813.152344-.007813 20.675781.085937 37.472656 16.929687 37.472656 37.625 0 14.921875-10.671875 27.480469-25.371093 29.863281-.480469.078125-.945313.195313-1.386719.351563h-307.285157c-8.886718 0-16.117187-7.230469-16.117187-16.121094 0-4.140625-3.359375-7.496094-7.5-7.496094s-7.496094 3.355469-7.496094 7.496094c0 17.15625 13.957031 31.117187 31.113281 31.117187h307.28125c.445313.15625.90625.273438 1.386719.351563 14.703125 2.382813 25.375 14.941406 25.375 29.863281 0 20.746094-16.878906 37.625-37.625 37.625h-328.601562c-10.886719 0-21.382813-2.269531-31.199219-6.746094-3.769531-1.71875-8.214844-.058593-9.933594 3.710938s-.058594 8.214844 3.710938 9.933594c11.785156 5.371094 24.375 8.097656 37.421875 8.097656h328.601562c29.015625 0 52.621094-23.605469 52.621094-52.621094 0-15.65625-7.855469-29.570312-20.140625-37.714844 12.285156-8.140624 20.140625-22.058593 20.140625-37.710937 0-19.132813-10.265625-35.90625-25.578125-45.117187 15.3125-9.214844 25.578125-25.988282 25.578125-45.121094 0-15.65625-7.855469-29.570313-20.140625-37.710938 12.285156-8.144531 20.140625-22.058594 20.140625-37.714844 0-19.132812-10.265625-35.90625-25.578125-45.117187 15.3125-9.214844 25.578125-25.992187 25.578125-45.125zm-14.996094 90.242187c0 14.921876-10.671875 27.480469-25.375 29.859376-.480469.078124-.941406.199218-1.386719.355468h-307.28125c-8.886718 0-16.117187-7.234375-16.117187-16.121094 0-4.144531-3.359375-7.5-7.5-7.5s-7.496094 3.355469-7.496094 7.5c0 17.15625 13.957031 31.113282 31.113281 31.113282h307.28125c.445313.15625.90625.277344 1.386719.355468 14.703125 2.378907 25.375 14.9375 25.375 29.859376 0 20.695312-16.796875 37.539062-37.472656 37.625-.050781 0-.101563-.007813-.152344-.007813h-328.601562c-.070313 0-.136719.003906-.203125.003906-41.425782-.109375-75.09375-33.839843-75.09375-75.375 0-41.449219 33.664062-75.179687 75.089844-75.292969.066406 0 .136718.003907.207031.003907h328.601562c.050781 0 .101563-.003907.15625-.003907 20.675781.085938 37.46875 16.929688 37.46875 37.625zm0 0" data-original="#000000" class="active-path" data-old_color="#000000" fill="#CF0000"/></g> </svg>
