<svg id="Layer_1" data-name="Layer 1" xmlns="http://www.w3.org/2000/svg" viewBox="0 0 32 32"><defs><style>.cls-1{fill:#fff;}</style></defs><path class="cls-1" d="M19.56,16.5a3.06,3.06,0,1,1-3.06-3.06A3.06,3.06,0,0,1,19.56,16.5Z" transform="translate(-0.5 -0.5)"/><path class="cls-1" d="M23.66,11.08a3.1,3.1,0,0,0-1.74-1.74A5,5,0,0,0,20.21,9c-1,0-1.26,0-3.71,0s-2.74,0-3.71,0a5,5,0,0,0-1.71.32,3.1,3.1,0,0,0-1.74,1.74A5,5,0,0,0,9,12.79c0,1,0,1.26,0,3.71s0,2.74,0,3.71a5,5,0,0,0,.32,1.71A3,3,0,0,0,10,23a2.84,2.84,0,0,0,1.06.68,5,5,0,0,0,1.71.32c1,0,1.26.05,3.71.05s2.74,0,3.71-.05a5,5,0,0,0,1.71-.32,3,3,0,0,0,1.74-1.74A5,5,0,0,0,24,20.21c0-1,.05-1.26.05-3.71s0-2.74-.05-3.71A5,5,0,0,0,23.66,11.08ZM16.5,21.22a4.72,4.72,0,1,1,4.72-4.72A4.72,4.72,0,0,1,16.5,21.22Zm4.9-8.52a1.11,1.11,0,1,1,1.11-1.1A1.11,1.11,0,0,1,21.4,12.7Z" transform="translate(-0.5 -0.5)"/><path class="cls-1" d="M16.5.5a16,16,0,1,0,16,16A16,16,0,0,0,16.5.5Zm9.13,19.79a6.85,6.85,0,0,1-.42,2.23,4.75,4.75,0,0,1-2.69,2.69,6.85,6.85,0,0,1-2.23.42c-1,.05-1.29.06-3.79.06s-2.81,0-3.79-.06a6.85,6.85,0,0,1-2.23-.42,4.78,4.78,0,0,1-1.63-1.06,4.62,4.62,0,0,1-1-1.63,6.57,6.57,0,0,1-.43-2.23c0-1-.06-1.29-.06-3.79s0-2.81.06-3.79a6.85,6.85,0,0,1,.42-2.23,4.69,4.69,0,0,1,2.69-2.69,6.85,6.85,0,0,1,2.23-.42c1,0,1.29-.06,3.79-.06s2.81,0,3.79.06a6.85,6.85,0,0,1,2.23.42,4.69,4.69,0,0,1,2.69,2.69,6.85,6.85,0,0,1,.42,2.23c.05,1,.06,1.29.06,3.79S25.68,19.31,25.63,20.29Z" transform="translate(-0.5 -0.5)"/></svg>