<?xml version="1.0"?>
<svg xmlns="http://www.w3.org/2000/svg" id="Layer_1" height="512px" viewBox="0 0 128 128" width="512px" data-name="Layer 1"><g><path d="m121.5 22.442h-113.5a1.751 1.751 0 0 0 -1.75 1.75v67.616a1.751 1.751 0 0 0 1.75 1.75h46.75v8.5h-7.75a1.75 1.75 0 1 0 0 3.5h34a1.75 1.75 0 0 0 0-3.5h-7.75v-8.5h48.25a1.751 1.751 0 0 0 1.75-1.75v-67.616a1.751 1.751 0 0 0 -1.75-1.75zm-51.75 79.616h-11.5v-8.5h11.5zm50-12h-110v-64.116h110z" data-original="#000000" class="active-path" data-old_color="#000000" fill="#D70000"/><path d="m112.5 77.5a1.751 1.751 0 0 0 1.75-1.75v-24.083a1.75 1.75 0 0 0 -3.5 0v24.083a1.751 1.751 0 0 0 1.75 1.75z" data-original="#000000" class="active-path" data-old_color="#000000" fill="#D70000"/></g> </svg>
