<svg id="Layer_1" data-name="Layer 1" xmlns="http://www.w3.org/2000/svg" viewBox="0 0 31.6 32.22"><defs><style>.cls-1{fill:#fff;}</style></defs><path class="cls-1" d="M16.74.46A16,16,0,0,0,.94,16.57a16,16,0,0,0,15.8,16.11,16,16,0,0,0,15.8-16.11A16,16,0,0,0,16.74.46ZM12.15,24.81H8.31V13h3.84ZM10.23,11.4h0a2,2,0,1,1,.06-4.08,2,2,0,1,1,0,4.08ZM26,24.81H22.18V18.5c0-1.59-.56-2.67-1.95-2.67a2.11,2.11,0,0,0-2,1.43,2.83,2.83,0,0,0-.13,1v6.59H14.28s.05-10.69,0-11.8h3.85v1.67a3.82,3.82,0,0,1,3.47-1.95C24.13,12.73,26,14.42,26,18Z" transform="translate(-0.94 -0.46)"/></svg>