<?xml version="1.0" encoding="utf-8"?>
<!-- Generator: Adobe Illustrator 24.1.1, SVG Export Plug-In . SVG Version: 6.00 Build 0)  -->
<svg version="1.1" id="Layer_1" xmlns="http://www.w3.org/2000/svg" xmlns:xlink="http://www.w3.org/1999/xlink" x="0px" y="0px"
	 viewBox="0 0 33 33" style="enable-background:new 0 0 33 33;" xml:space="preserve">
<style type="text/css">
	.st0{fill:#E2574C;}
	.st1{fill:#B53629;}
	.st2{fill:#FFFFFF;}
</style>
<g>
	<path class="st0" d="M4.5,0.5h17l9,9v21c0,1.1-0.9,2-2,2h-24c-1.1,0-2-0.9-2-2v-28C2.5,1.4,3.4,0.5,4.5,0.5z"/>
	<path class="st1" d="M30.5,9.5h-7c-1.1,0-2-0.9-2-2v-7L30.5,9.5z"/>
	<path class="st2" d="M23,15.7c0.3,0,0.5-0.3,0.5-0.6c0-0.3-0.2-0.6-0.5-0.6h-1.9c-0.4,0-0.6,0.3-0.6,0.6v4.7c0,0.4,0.2,0.6,0.6,0.6
		c0.3,0,0.6-0.2,0.6-0.6v-1.3h1.2c0.4,0,0.5-0.3,0.5-0.6c0-0.3-0.2-0.6-0.5-0.6h-1.2v-1.7C21.6,15.7,23,15.7,23,15.7z M16.5,14.5
		h-1.4c-0.4,0-0.6,0.3-0.6,0.6v4.7c0,0.5,0.4,0.6,0.7,0.6h1.5c1.7,0,2.9-1.1,2.9-2.9C19.5,15.7,18.4,14.5,16.5,14.5z M16.6,19.3
		h-0.9v-3.7h0.8c1.2,0,1.7,0.8,1.7,1.9C18.2,18.5,17.7,19.3,16.6,19.3z M11.5,14.5h-1.4c-0.4,0-0.6,0.3-0.6,0.6v4.7
		c0,0.4,0.2,0.6,0.6,0.6c0.3,0,0.6-0.2,0.6-0.6v-1.4h0.9c1.1,0,2-0.8,2-2C13.5,15.3,12.7,14.5,11.5,14.5z M11.5,17.4h-0.8v-1.8h0.8
		c0.5,0,0.8,0.4,0.8,0.9C12.3,17,12,17.4,11.5,17.4z"/>
</g>
</svg>
