<svg id="Layer_1" data-name="Layer 1" xmlns="http://www.w3.org/2000/svg" viewBox="0 0 32 32"><defs><style>.cls-1{fill:#fff;}</style></defs><path class="cls-1" d="M16.5.5a16,16,0,1,0,16,16A16,16,0,0,0,16.5.5ZM23.81,13c0,.15,0,.31,0,.47A10.38,10.38,0,0,1,13.37,23.9h0a10.38,10.38,0,0,1-5.63-1.65,8.46,8.46,0,0,0,.87.05,7.43,7.43,0,0,0,4.57-1.57,3.69,3.69,0,0,1-3.44-2.55,4,4,0,0,0,.69.06,3.44,3.44,0,0,0,1-.13,3.66,3.66,0,0,1-2.94-3.6v0a3.71,3.71,0,0,0,1.66.46,3.67,3.67,0,0,1-1.63-3.06A3.76,3.76,0,0,1,9,10a10.39,10.39,0,0,0,7.57,3.84,3.86,3.86,0,0,1-.09-.84,3.67,3.67,0,0,1,6.35-2.51,7.22,7.22,0,0,0,2.33-.89,3.62,3.62,0,0,1-1.61,2,7.18,7.18,0,0,0,2.11-.58A7.56,7.56,0,0,1,23.81,13Z" transform="translate(-0.5 -0.5)"/></svg>