<?xml version="1.0" encoding="utf-8"?>
<!-- Generator: Adobe Illustrator 24.1.1, SVG Export Plug-In . SVG Version: 6.00 Build 0)  -->
<svg version="1.1" id="Layer_1" xmlns="http://www.w3.org/2000/svg" xmlns:xlink="http://www.w3.org/1999/xlink" x="0px" y="0px"
	 viewBox="0 0 33 33" style="enable-background:new 0 0 33 33;" xml:space="preserve">
<style type="text/css">
	.st0{fill:#FFFFFF;}
</style>
<g>
	<path class="st0" d="M14.7,19.6l5.2-3l-5.2-3V19.6z"/>
	<path class="st0" d="M16.7,0.6c-8.8,0-16,7.2-16,16s7.2,16,16,16s16-7.2,16-16S25.6,0.6,16.7,0.6z M26.7,16.6c0,0,0,3.2-0.4,4.8
		c-0.2,0.9-0.9,1.5-1.8,1.8c-1.6,0.4-7.8,0.4-7.8,0.4s-6.2,0-7.8-0.4c-0.9-0.2-1.5-0.9-1.8-1.8c-0.4-1.5-0.4-4.8-0.4-4.8
		s0-3.2,0.4-4.8C7.4,11,8.1,10.3,8.9,10c1.6-0.4,7.8-0.4,7.8-0.4s6.3,0,7.8,0.4c0.9,0.2,1.5,0.9,1.8,1.8
		C26.7,13.4,26.7,16.6,26.7,16.6z"/>
</g>
</svg>
